<?xml version="1.0" encoding="UTF-8"?>
<svg id="Layer_1" data-name="Layer 1" xmlns="http://www.w3.org/2000/svg" viewBox="0 0 810 285">
  <defs>
    <style>
      .cls-1 {
        fill: #0095da;
      }

      .cls-2 {
        fill: #0d4689;
      }
    </style>
  </defs>
  <g>
    <path class="cls-2" d="M433.15,65.06h-56.48l43.96-42.65h123.92l-8.62,42.65h-47.78l-24.01,120.49h-55l24-120.49Z"/>
    <path class="cls-1" d="M36.39,116.34c0-57.57,42.88-97.65,102.78-97.65,50.81,0,82.73,30.07,82.73,72.95,0,57.56-42.88,97.65-102.78,97.65-50.81,0-82.74-30.06-82.74-72.95ZM166.44,94.9c0-18.88-11.89-31.7-31.93-31.7-27.03,0-42.65,23.07-42.65,49.87,0,18.88,11.89,31.7,31.93,31.7,27.03,0,42.65-23.07,42.65-49.87Z"/>
    <path class="cls-1" d="M316.67,96.76l53.14,88.79h-61.29l-33.09-53.14-15.38,14.22-7.69,38.92h-54.07L230.91,22.41h54.07l-11.65,57.8,61.99-57.8h63.16l-81.8,74.35Z"/>
    <polygon class="cls-2" points="710 58.07 668.74 94.43 683.12 22.36 630.45 22.36 597.89 185.55 650.57 185.55 655.46 161.08 668.98 148.5 690.88 185.55 752.64 185.55 710.93 115.64 774.78 58.07 710 58.07"/>
    <polygon class="cls-2" points="575.93 185.48 596.67 81.38 544.23 81.38 523.49 185.48 575.93 185.48"/>
    <polygon class="cls-2" points="601.79 64.77 610.24 22.36 557.8 22.36 549.35 64.77 601.79 64.77"/>
  </g>
  <g>
    <path class="cls-2" d="M88.84,228.06l-7.37,37.41h-11.49l3.31-17.05-10.53,13.68h-5.56l-5.77-13.47-3.37,16.83h-11.49l7.48-37.41h10.26l8.12,19.88,15.66-19.88h10.74Z"/>
    <path class="cls-2" d="M114.8,258.94h-14.27l-3.74,6.52h-13.31l23.83-37.41h12.4l8.87,37.41h-12.56l-1.23-6.52ZM113.04,249.86l-1.82-9.57-5.5,9.57h7.32Z"/>
    <path class="cls-2" d="M129.28,262.52l4.86-9.3c4.17,2.41,8.44,3.47,12.61,3.47,3.26,0,4.97-.85,4.97-2.19,0-3.96-17.79-1.66-17.79-13.25,0-8.5,7.11-14.05,18.92-14.05,5.56,0,10.53,1.12,14,3.21l-4.54,9.19c-2.99-1.87-6.63-2.78-10.26-2.78s-5.5,1.23-5.5,2.51c0,4.11,17.85,1.5,17.85,13.04,0,8.34-7.27,13.95-18.92,13.95-6.68,0-12.61-1.6-16.19-3.79Z"/>
    <path class="cls-2" d="M178.81,237.83h-10.95l1.98-9.78h34.52l-1.98,9.78h-10.95l-5.5,27.63h-12.61l5.5-27.63Z"/>
    <path class="cls-2" d="M218.08,237.57l-.85,4.38h15.82l-1.82,9.08h-15.87l-.96,4.92h18.76l-1.92,9.51h-31.1l7.48-37.41h30.41l-1.92,9.51h-18.01Z"/>
    <path class="cls-2" d="M265.79,254.56l6.25,10.9h-13.09l-5.29-9.41h-3.1l-1.87,9.41h-12.61l7.48-37.41h16.78c9.89,0,15.55,4.54,15.55,12.29,0,6.68-3.74,11.81-10.1,14.21ZM258.42,237.78h-4.22l-1.76,8.76h5.18c3.47,0,5.5-1.82,5.5-4.97,0-2.67-1.82-3.79-4.7-3.79Z"/>
    <path class="cls-2" d="M274.55,262.52l4.86-9.3c4.17,2.41,8.44,3.47,12.61,3.47,3.26,0,4.97-.85,4.97-2.19,0-3.96-17.79-1.66-17.79-13.25,0-8.5,7.11-14.05,18.92-14.05,5.56,0,10.53,1.12,14,3.21l-4.54,9.19c-2.99-1.87-6.63-2.78-10.26-2.78s-5.5,1.23-5.5,2.51c0,4.11,17.85,1.5,17.85,13.04,0,8.34-7.27,13.95-18.92,13.95-6.68,0-12.61-1.6-16.19-3.79Z"/>
    <path class="cls-2" d="M329.1,249.59c0-13.2,9.83-22.39,23.57-22.39,11.65,0,18.97,6.89,18.97,16.73,0,13.2-9.83,22.39-23.57,22.39-11.65,0-18.97-6.89-18.97-16.72ZM358.92,244.67c0-4.33-2.73-7.27-7.32-7.27-6.2,0-9.78,5.29-9.78,11.43,0,4.33,2.73,7.27,7.32,7.27,6.2,0,9.78-5.29,9.78-11.44Z"/>
    <path class="cls-2" d="M390.49,237.57l-1.28,6.41h15.6l-1.92,9.51h-15.55l-2.4,11.97h-12.61l7.48-37.41h30.41l-1.92,9.51h-17.79Z"/>
    <path class="cls-2" d="M475.02,228.06l-7.37,37.41h-11.49l3.31-17.05-10.53,13.68h-5.56l-5.77-13.47-3.37,16.83h-11.49l7.48-37.41h10.26l8.12,19.88,15.66-19.88h10.74Z"/>
    <path class="cls-2" d="M481.21,228.06h12.61l-7.48,37.41h-12.61l7.48-37.41Z"/>
    <path class="cls-2" d="M521.12,245.74h10.96l-3.21,16.14c-3.96,2.83-9.25,4.43-15.18,4.43-11.6,0-19.18-6.79-19.18-16.72,0-13.15,9.78-22.39,24.05-22.39,7.86,0,13.47,2.51,16.99,7.32l-9.03,7c-2.4-3.1-5.02-4.11-8.55-4.11-6.57,0-10.74,4.7-10.74,11.38,0,4.38,3.05,7.32,8.23,7.32,1.23,0,2.46-.16,3.69-.53l1.98-9.83Z"/>
    <path class="cls-2" d="M563.23,254.56l6.25,10.9h-13.09l-5.29-9.41h-3.1l-1.87,9.41h-12.61l7.48-37.41h16.78c9.89,0,15.55,4.54,15.55,12.29,0,6.68-3.74,11.81-10.1,14.21ZM555.85,237.78h-4.22l-1.76,8.76h5.18c3.47,0,5.5-1.82,5.5-4.97,0-2.67-1.82-3.79-4.7-3.79Z"/>
    <path class="cls-2" d="M600.57,258.94h-14.27l-3.74,6.52h-13.31l23.83-37.41h12.4l8.87,37.41h-12.56l-1.23-6.52ZM598.81,249.86l-1.82-9.57-5.5,9.57h7.32Z"/>
    <path class="cls-2" d="M628.14,237.83h-10.96l1.98-9.78h34.52l-1.98,9.78h-10.96l-5.5,27.63h-12.61l5.5-27.63Z"/>
    <path class="cls-2" d="M656.94,228.06h12.61l-7.48,37.41h-12.61l7.48-37.41Z"/>
    <path class="cls-2" d="M670.24,249.59c0-13.2,9.83-22.39,23.57-22.39,11.65,0,18.97,6.89,18.97,16.73,0,13.2-9.83,22.39-23.57,22.39-11.65,0-18.97-6.89-18.97-16.72ZM700.06,244.67c0-4.33-2.73-7.27-7.32-7.27-6.2,0-9.78,5.29-9.78,11.43,0,4.33,2.72,7.27,7.32,7.27,6.2,0,9.78-5.29,9.78-11.44Z"/>
    <path class="cls-2" d="M757.82,228.06l-7.48,37.41h-10.37l-10.74-17.42-3.47,17.42h-12.29l7.48-37.41h10.37l10.74,17.42,3.47-17.42h12.29Z"/>
  </g>
</svg>