<?xml version="1.0" encoding="UTF-8"?>
<svg id="Layer_1" data-name="Layer 1" xmlns="http://www.w3.org/2000/svg" viewBox="0 0 810 285">
  <defs>
    <style>
      .cls-1 {
        fill: #0095da;
      }

      .cls-2 {
        fill: #fff;
      }
    </style>
  </defs>
  <g>
    <path class="cls-2" d="M439.82,65.06h-56.48l43.96-42.65h123.92l-8.62,42.65h-47.78l-24.01,120.49h-55l24-120.49Z"/>
    <path class="cls-1" d="M43.06,116.34c0-57.57,42.88-97.65,102.78-97.65,50.81,0,82.73,30.07,82.73,72.95,0,57.56-42.88,97.65-102.78,97.65-50.81,0-82.74-30.06-82.74-72.95ZM173.1,94.9c0-18.88-11.89-31.7-31.93-31.7-27.03,0-42.65,23.07-42.65,49.87,0,18.88,11.89,31.7,31.93,31.7,27.03,0,42.65-23.07,42.65-49.87Z"/>
    <path class="cls-1" d="M323.34,96.76l53.14,88.79h-61.29l-33.09-53.14-15.38,14.22-7.69,38.92h-54.07L237.57,22.41h54.07l-11.65,57.8,61.99-57.8h63.16l-81.8,74.35Z"/>
    <polygon class="cls-2" points="716.66 58.07 675.41 94.43 689.78 22.36 637.11 22.36 604.56 185.55 657.23 185.55 662.13 161.08 675.64 148.5 697.55 185.55 759.31 185.55 717.59 115.64 781.45 58.07 716.66 58.07"/>
    <polygon class="cls-2" points="582.59 185.48 603.34 81.38 550.9 81.38 530.15 185.48 582.59 185.48"/>
    <polygon class="cls-2" points="608.45 64.77 616.9 22.36 564.46 22.36 556.01 64.77 608.45 64.77"/>
  </g>
  <g>
    <path class="cls-2" d="M95.5,228.05l-7.37,37.41h-11.49l3.31-17.05-10.53,13.68h-5.56l-5.77-13.47-3.37,16.83h-11.49l7.48-37.41h10.26l8.12,19.88,15.66-19.88h10.74Z"/>
    <path class="cls-2" d="M121.47,258.94h-14.27l-3.74,6.52h-13.31l23.83-37.41h12.4l8.87,37.41h-12.56l-1.23-6.52ZM119.7,249.86l-1.82-9.56-5.5,9.56h7.32Z"/>
    <path class="cls-2" d="M135.94,262.52l4.86-9.3c4.17,2.4,8.44,3.47,12.61,3.47,3.26,0,4.97-.85,4.97-2.19,0-3.95-17.79-1.66-17.79-13.25,0-8.5,7.11-14.05,18.92-14.05,5.56,0,10.53,1.12,14,3.21l-4.54,9.19c-2.99-1.87-6.63-2.78-10.26-2.78s-5.5,1.23-5.5,2.51c0,4.11,17.85,1.5,17.85,13.04,0,8.34-7.27,13.95-18.92,13.95-6.68,0-12.61-1.6-16.19-3.79Z"/>
    <path class="cls-2" d="M185.47,237.83h-10.95l1.98-9.78h34.52l-1.98,9.78h-10.95l-5.5,27.63h-12.61l5.5-27.63Z"/>
    <path class="cls-2" d="M224.74,237.57l-.85,4.38h15.82l-1.82,9.08h-15.87l-.96,4.92h18.76l-1.92,9.51h-31.1l7.48-37.41h30.41l-1.92,9.51h-18.01Z"/>
    <path class="cls-2" d="M272.46,254.56l6.25,10.9h-13.09l-5.29-9.4h-3.1l-1.87,9.4h-12.61l7.48-37.41h16.78c9.89,0,15.55,4.54,15.55,12.29,0,6.68-3.74,11.81-10.1,14.21ZM265.08,237.78h-4.22l-1.76,8.76h5.18c3.47,0,5.5-1.82,5.5-4.97,0-2.67-1.82-3.79-4.7-3.79Z"/>
    <path class="cls-2" d="M281.21,262.52l4.86-9.3c4.17,2.4,8.44,3.47,12.61,3.47,3.26,0,4.97-.85,4.97-2.19,0-3.95-17.79-1.66-17.79-13.25,0-8.5,7.11-14.05,18.92-14.05,5.56,0,10.53,1.12,14,3.21l-4.54,9.19c-2.99-1.87-6.63-2.78-10.26-2.78s-5.5,1.23-5.5,2.51c0,4.11,17.85,1.5,17.85,13.04,0,8.34-7.27,13.95-18.92,13.95-6.68,0-12.61-1.6-16.19-3.79Z"/>
    <path class="cls-2" d="M335.77,249.59c0-13.2,9.83-22.39,23.57-22.39,11.65,0,18.97,6.89,18.97,16.73,0,13.2-9.83,22.39-23.57,22.39-11.65,0-18.97-6.89-18.97-16.73ZM365.58,244.67c0-4.33-2.73-7.27-7.32-7.27-6.2,0-9.78,5.29-9.78,11.44,0,4.33,2.73,7.27,7.32,7.27,6.2,0,9.78-5.29,9.78-11.44Z"/>
    <path class="cls-2" d="M397.16,237.57l-1.28,6.41h15.6l-1.92,9.51h-15.55l-2.4,11.97h-12.61l7.48-37.41h30.41l-1.92,9.51h-17.79Z"/>
    <path class="cls-2" d="M481.69,228.05l-7.37,37.41h-11.49l3.31-17.05-10.53,13.68h-5.56l-5.77-13.47-3.37,16.83h-11.49l7.48-37.41h10.26l8.12,19.88,15.66-19.88h10.74Z"/>
    <path class="cls-2" d="M487.88,228.05h12.61l-7.48,37.41h-12.61l7.48-37.41Z"/>
    <path class="cls-2" d="M527.79,245.74h10.96l-3.21,16.14c-3.96,2.83-9.25,4.44-15.18,4.44-11.59,0-19.18-6.79-19.18-16.73,0-13.15,9.78-22.39,24.05-22.39,7.86,0,13.47,2.51,16.99,7.32l-9.03,7c-2.4-3.1-5.02-4.11-8.55-4.11-6.57,0-10.74,4.7-10.74,11.38,0,4.38,3.04,7.32,8.23,7.32,1.23,0,2.46-.16,3.69-.53l1.98-9.83Z"/>
    <path class="cls-2" d="M569.89,254.56l6.25,10.9h-13.09l-5.29-9.4h-3.1l-1.87,9.4h-12.61l7.48-37.41h16.78c9.89,0,15.55,4.54,15.55,12.29,0,6.68-3.74,11.81-10.1,14.21ZM562.52,237.78h-4.22l-1.76,8.76h5.18c3.47,0,5.5-1.82,5.5-4.97,0-2.67-1.82-3.79-4.7-3.79Z"/>
    <path class="cls-2" d="M607.24,258.94h-14.27l-3.74,6.52h-13.31l23.83-37.41h12.4l8.87,37.41h-12.56l-1.23-6.52ZM605.48,249.86l-1.82-9.56-5.5,9.56h7.32Z"/>
    <path class="cls-2" d="M634.81,237.83h-10.96l1.98-9.78h34.52l-1.98,9.78h-10.96l-5.5,27.63h-12.61l5.5-27.63Z"/>
    <path class="cls-2" d="M663.6,228.05h12.61l-7.48,37.41h-12.61l7.48-37.41Z"/>
    <path class="cls-2" d="M676.91,249.59c0-13.2,9.83-22.39,23.57-22.39,11.65,0,18.97,6.89,18.97,16.73,0,13.2-9.83,22.39-23.57,22.39-11.65,0-18.97-6.89-18.97-16.73ZM706.72,244.67c0-4.33-2.73-7.27-7.32-7.27-6.2,0-9.78,5.29-9.78,11.44,0,4.33,2.72,7.27,7.32,7.27,6.2,0,9.78-5.29,9.78-11.44Z"/>
    <path class="cls-2" d="M764.48,228.05l-7.48,37.41h-10.37l-10.74-17.42-3.47,17.42h-12.29l7.48-37.41h10.37l10.74,17.42,3.47-17.42h12.29Z"/>
  </g>
</svg>